<svg width="40" height="28" viewBox="0 0 40 28" fill="none" xmlns="http://www.w3.org/2000/svg">
<path d="M39.16 22.18L36.98 6.86C36.42 2.92 33.04 0 29.06 0H10.94C6.96001 0 3.58001 2.92 3.02001 6.86L0.840008 22.18C0.400008 25.26 2.78001 28 5.88001 28C7.24001 28 8.52001 27.46 9.48001 26.5L14 22H26L30.5 26.5C31.46 27.46 32.76 28 34.1 28C37.22 28 39.6 25.26 39.16 22.18ZM18 12H14V16H12V12H8.00001V10H12V6H14V10H18V12ZM26 10C24.9 10 24 9.1 24 8C24 6.9 24.9 6 26 6C27.1 6 28 6.9 28 8C28 9.1 27.1 10 26 10ZM30 16C28.9 16 28 15.1 28 14C28 12.9 28.9 12 30 12C31.1 12 32 12.9 32 14C32 15.1 31.1 16 30 16Z" fill="#D9D9D9"/>
</svg>
