<svg width="40" height="40" viewBox="0 0 40 40" fill="none" xmlns="http://www.w3.org/2000/svg">
<path d="M8.33333 8.33333H18.3333C19.25 8.33333 20 7.58333 20 6.66667C20 5.75 19.25 5 18.3333 5H8.33333C6.5 5 5 6.5 5 8.33333V31.6667C5 33.5 6.5 35 8.33333 35H18.3333C19.25 35 20 34.25 20 33.3333C20 32.4167 19.25 31.6667 18.3333 31.6667H8.33333V8.33333Z" fill="#EC7979"/>
<path d="M34.4167 19.4167L29.7667 14.7667C29.2333 14.2333 28.3333 14.6 28.3333 15.35V18.3333H16.6667C15.75 18.3333 15 19.0833 15 20C15 20.9167 15.75 21.6667 16.6667 21.6667H28.3333V24.65C28.3333 25.4 29.2333 25.7667 29.75 25.2333L34.4 20.5833C34.7333 20.2667 34.7333 19.7333 34.4167 19.4167Z" fill="#EC7979"/>
</svg>
